# xmcd
#
# Track frame offsets:
# 150
# 15445
# 29382
# 46830
# 62926
# 78201
# 97781
# 108438
# 122575
# 140260
# 155939
# 172403
# 185451
# 201016
#
# Disc length: 2856 seconds
#
#
# Revision: 0
# Processed by: cddbd v1.5.2PL0 Copyright (c) Steve Scherf et al.
# Submitted via: FreeRIP 2.951 
#
DISCID=b60b260e
DTITLE=Gino and Geno - Canto, Bebo E Choro 
DYEAR=2007
DGENRE=Sertanejo
TTITLE0=Arrependido
TTITLE1=Bola da Vez
TTITLE2=Canto Bebo e Choro
TTITLE3=Chorei Chorei
TTITLE4=Freio de Mão
TTITLE5=Ninguem Sabe Ninguem Viu
TTITLE6=Pescaria
TTITLE7=Pra tirar o Barro
TTITLE8=Querendo Maria
TTITLE9=Reza Pra Nóis
TTITLE10=To Chegando Pra te Amar
TTITLE11=Toalha Branca
TTITLE12=Um Botão Pra Dar
TTITLE13=Vento Que Venta Lá
EXTD=
EXTT0=
EXTT1=
EXTT2=
EXTT3=
EXTT4=
EXTT5=
EXTT6=
EXTT7=
EXTT8=
EXTT9=
EXTT10=
EXTT11=
EXTT12=
EXTT13=
PLAYORDER=
